<?xml version="1.0" standalone="no"?>
<!DOCTYPE svg PUBLIC "-//W3C//DTD SVG 20010904//EN"
 "http://www.w3.org/TR/2001/REC-SVG-20010904/DTD/svg10.dtd">
<svg version="1.0" xmlns="http://www.w3.org/2000/svg"
 width="257.000000pt" height="238.000000pt" viewBox="0 0 257.000000 238.000000"
 preserveAspectRatio="xMidYMid meet">

<g transform="translate(0.000000,238.000000) scale(0.100000,-0.100000)"
fill="#000000" stroke="none">
<path d="M90 1222 l0 -1058 38 -37 38 -37 1052 0 1052 0 0 80 0 80 -1015 0
-1015 0 0 217 0 218 272 272 272 273 132 -130 131 -130 54 0 54 0 402 402 403
403 128 -128 127 -127 58 58 57 58 -158 157 -158 157 -50 0 -49 0 -405 -405
-405 -405 -130 130 -130 130 -55 0 -55 0 -247 -247 -248 -248 0 688 0 687 -75
0 -75 0 0 -1058z"/>
</g>
</svg>
